<?xml version="1.0" standalone="no"?>
<!DOCTYPE svg PUBLIC "-//W3C//DTD SVG 20010904//EN"
 "http://www.w3.org/TR/2001/REC-SVG-20010904/DTD/svg10.dtd">
<svg version="1.0" xmlns="http://www.w3.org/2000/svg"
 width="48.000000pt" height="48.000000pt" viewBox="0 0 48.000000 48.000000"
 preserveAspectRatio="xMidYMid meet">

<g transform="translate(0.000000,48.000000) scale(0.100000,-0.100000)"
fill="#000000" stroke="none">
<path d="M44 397 c-2 -7 -3 -82 -2 -167 l3 -155 195 0 195 0 0 165 0 165 -193
3 c-152 2 -194 0 -198 -11z m102 -85 c-34 -35 -36 -35 -55 -18 -23 21 -18 44
5 25 12 -10 20 -8 41 14 15 14 31 23 36 20 5 -3 -7 -22 -27 -41z m254 -12 c0
-6 -40 -10 -100 -10 -60 0 -100 4 -100 10 0 6 40 10 100 10 60 0 100 -4 100
-10z m0 -60 c0 -6 -40 -10 -100 -10 -60 0 -100 4 -100 10 0 6 40 10 100 10 60
0 100 -4 100 -10z m0 -60 c0 -6 -40 -10 -100 -10 -60 0 -100 4 -100 10 0 6 40
10 100 10 60 0 100 -4 100 -10z"/>
</g>
</svg>
